<svg width="18" height="16" viewBox="0 0 18 16" fill="none" xmlns="http://www.w3.org/2000/svg">
<path d="M9 14.4C10.9096 14.4 12.7409 13.7257 14.0912 12.5255C15.4414 11.3253 16.2 9.69739 16.2 8C16.2 6.30261 15.4414 4.67475 14.0912 3.47452C12.7409 2.27428 10.9096 1.6 9 1.6C7.09044 1.6 5.25909 2.27428 3.90883 3.47452C2.55857 4.67475 1.8 6.30261 1.8 8C1.8 9.69739 2.55857 11.3253 3.90883 12.5255C5.25909 13.7257 7.09044 14.4 9 14.4ZM9 0C10.1819 0 11.3522 0.206926 12.4442 0.608964C13.5361 1.011 14.5282 1.60028 15.364 2.34315C16.1997 3.08601 16.8626 3.96793 17.3149 4.93853C17.7672 5.90914 18 6.94943 18 8C18 10.1217 17.0518 12.1566 15.364 13.6569C13.6761 15.1571 11.3869 16 9 16C4.023 16 0 12.4 0 8C0 5.87827 0.948211 3.84344 2.63604 2.34315C4.32387 0.842855 6.61305 0 9 0ZM9.45 4V8.2L13.5 10.336L12.825 11.32L8.1 8.8V4H9.45Z" fill="white"/>
</svg>
