<svg width="20" height="20" viewBox="0 0 20 20" fill="none" xmlns="http://www.w3.org/2000/svg">
<path d="M10.21 15.4206C10.7374 15.3846 11.2604 15.3003 11.7725 15.169C12.405 15.3591 13.0725 15.4021 13.7242 15.2948C13.7502 15.2916 13.7763 15.2897 13.8025 15.289C14.035 15.289 14.34 15.4223 14.785 15.7031V15.2415C14.7852 15.161 14.8069 15.0821 14.848 15.0129C14.889 14.9438 14.9478 14.8868 15.0183 14.8481C15.2122 14.7387 15.3914 14.6156 15.5558 14.479C16.2042 13.9373 16.57 13.214 16.57 12.449C16.57 12.1965 16.53 11.9448 16.4508 11.7048C16.6475 11.3431 16.8042 10.9656 16.9208 10.5723C17.2958 11.1265 17.4975 11.7806 17.5 12.449C17.5 13.489 17.01 14.459 16.1608 15.1681C16.0186 15.2865 15.87 15.3953 15.715 15.4948V16.5765C15.715 16.9481 15.28 17.1623 14.9733 16.9406C14.6828 16.7268 14.3824 16.5266 14.0733 16.3406C13.984 16.2891 13.8916 16.2432 13.7967 16.2031C13.5387 16.2413 13.2783 16.2605 13.0175 16.2606C11.9592 16.2606 10.9808 15.9465 10.21 15.4206ZM4.60917 13.2581C3.2725 12.139 2.5 10.6131 2.5 8.97812C2.5 5.63812 5.69333 2.96729 9.5925 2.96729C13.4925 2.96729 16.6867 5.63728 16.6867 8.97812C16.6867 12.3181 13.4925 14.9881 9.5925 14.9881C9.15417 14.9881 8.72222 14.9548 8.29667 14.8881C8.11333 14.9306 7.37833 15.3615 6.32 16.124C5.93667 16.4006 5.39333 16.134 5.39333 15.6681V13.824C5.11885 13.6543 4.85705 13.4649 4.61 13.2573M8.3225 13.7506C8.35472 13.7506 8.38722 13.7531 8.42 13.7581C8.80333 13.8215 9.19417 13.8534 9.5925 13.854C12.8867 13.854 15.5225 11.6498 15.5225 8.97729C15.5225 6.30562 12.8867 4.10145 9.59333 4.10145C6.3 4.10145 3.6625 6.30728 3.6625 8.97812C3.6625 10.2698 4.27917 11.4865 5.3675 12.3973C5.64194 12.6262 5.94083 12.8317 6.26417 13.014C6.35188 13.0626 6.42509 13.1337 6.47633 13.22C6.52758 13.3062 6.55501 13.4045 6.55583 13.5048V14.5681C7.39333 14.014 7.94417 13.7506 8.3225 13.7506Z" fill="#000176"/>
<path d="M6.71875 9.99902C6.96739 9.99902 7.20585 9.90025 7.38166 9.72444C7.55748 9.54862 7.65625 9.31016 7.65625 9.06152C7.65625 8.81288 7.55748 8.57443 7.38166 8.39861C7.20585 8.2228 6.96739 8.12402 6.71875 8.12402C6.47011 8.12402 6.23165 8.2228 6.05584 8.39861C5.88002 8.57443 5.78125 8.81288 5.78125 9.06152C5.78125 9.31016 5.88002 9.54862 6.05584 9.72444C6.23165 9.90025 6.47011 9.99902 6.71875 9.99902ZM9.76625 9.99902C10.0149 9.99902 10.2533 9.90025 10.4292 9.72444C10.605 9.54862 10.7038 9.31016 10.7038 9.06152C10.7038 8.81288 10.605 8.57443 10.4292 8.39861C10.2533 8.2228 10.0149 8.12402 9.76625 8.12402C9.51761 8.12402 9.27915 8.2228 9.10334 8.39861C8.92752 8.57443 8.82875 8.81288 8.82875 9.06152C8.82875 9.31016 8.92752 9.54862 9.10334 9.72444C9.27915 9.90025 9.51761 9.99902 9.76625 9.99902ZM12.8129 9.99902C13.0616 9.99902 13.3 9.90025 13.4758 9.72444C13.6516 9.54862 13.7504 9.31016 13.7504 9.06152C13.7504 8.81288 13.6516 8.57443 13.4758 8.39861C13.3 8.2228 13.0616 8.12402 12.8129 8.12402C12.5643 8.12402 12.3258 8.2228 12.15 8.39861C11.9742 8.57443 11.8754 8.81288 11.8754 9.06152C11.8754 9.31016 11.9742 9.54862 12.15 9.72444C12.3258 9.90025 12.5643 9.99902 12.8129 9.99902Z" fill="#000176"/>
</svg>
