<svg width="20" height="21" viewBox="0 0 20 21" fill="none" xmlns="http://www.w3.org/2000/svg">
<path d="M10.21 15.9499C10.7374 15.9139 11.2604 15.8296 11.7725 15.6982C12.405 15.8884 13.0725 15.9314 13.7242 15.8241C13.7502 15.8209 13.7763 15.819 13.8025 15.8182C14.035 15.8182 14.34 15.9516 14.785 16.2324V15.7707C14.7852 15.6903 14.8069 15.6114 14.848 15.5422C14.889 15.4731 14.9478 15.4161 15.0183 15.3774C15.2122 15.268 15.3914 15.1449 15.5558 15.0082C16.2042 14.4666 16.57 13.7432 16.57 12.9782C16.57 12.7257 16.53 12.4741 16.4508 12.2341C16.6475 11.8724 16.8042 11.4949 16.9208 11.1016C17.2958 11.6557 17.4975 12.3099 17.5 12.9782C17.5 14.0182 17.01 14.9882 16.1608 15.6974C16.0186 15.8157 15.87 15.9246 15.715 16.0241V17.1057C15.715 17.4774 15.28 17.6916 14.9733 17.4699C14.6828 17.2561 14.3824 17.0559 14.0733 16.8699C13.984 16.8184 13.8916 16.7725 13.7967 16.7324C13.5387 16.7706 13.2783 16.7898 13.0175 16.7899C11.9592 16.7899 10.9808 16.4757 10.21 15.9499ZM4.60917 13.7874C3.2725 12.6682 2.5 11.1424 2.5 9.50742C2.5 6.16742 5.69333 3.49658 9.5925 3.49658C13.4925 3.49658 16.6867 6.16658 16.6867 9.50742C16.6867 12.8474 13.4925 15.5174 9.5925 15.5174C9.15417 15.5174 8.72222 15.4841 8.29667 15.4174C8.11333 15.4599 7.37833 15.8907 6.32 16.6532C5.93667 16.9299 5.39333 16.6632 5.39333 16.1974V14.3532C5.11885 14.1836 4.85705 13.9942 4.61 13.7866M8.3225 14.2799C8.35472 14.2799 8.38722 14.2824 8.42 14.2874C8.80333 14.3507 9.19417 14.3827 9.5925 14.3832C12.8867 14.3832 15.5225 12.1791 15.5225 9.50658C15.5225 6.83492 12.8867 4.63075 9.59333 4.63075C6.3 4.63075 3.6625 6.83658 3.6625 9.50742C3.6625 10.7991 4.27917 12.0157 5.3675 12.9266C5.64194 13.1555 5.94083 13.361 6.26417 13.5432C6.35188 13.5919 6.42509 13.663 6.47633 13.7492C6.52758 13.8355 6.55501 13.9338 6.55583 14.0341V15.0974C7.39333 14.5432 7.94417 14.2799 8.3225 14.2799Z" fill="white"/>
<path d="M6.71826 10.5283C6.9669 10.5283 7.20536 10.4295 7.38117 10.2537C7.55699 10.0779 7.65576 9.83946 7.65576 9.59082C7.65576 9.34218 7.55699 9.10372 7.38117 8.92791C7.20536 8.75209 6.9669 8.65332 6.71826 8.65332C6.46962 8.65332 6.23116 8.75209 6.05535 8.92791C5.87953 9.10372 5.78076 9.34218 5.78076 9.59082C5.78076 9.83946 5.87953 10.0779 6.05535 10.2537C6.23116 10.4295 6.46962 10.5283 6.71826 10.5283ZM9.76576 10.5283C10.0144 10.5283 10.2529 10.4295 10.4287 10.2537C10.6045 10.0779 10.7033 9.83946 10.7033 9.59082C10.7033 9.34218 10.6045 9.10372 10.4287 8.92791C10.2529 8.75209 10.0144 8.65332 9.76576 8.65332C9.51712 8.65332 9.27866 8.75209 9.10285 8.92791C8.92703 9.10372 8.82826 9.34218 8.82826 9.59082C8.82826 9.83946 8.92703 10.0779 9.10285 10.2537C9.27866 10.4295 9.51712 10.5283 9.76576 10.5283ZM12.8124 10.5283C13.0611 10.5283 13.2995 10.4295 13.4753 10.2537C13.6512 10.0779 13.7499 9.83946 13.7499 9.59082C13.7499 9.34218 13.6512 9.10372 13.4753 8.92791C13.2995 8.75209 13.0611 8.65332 12.8124 8.65332C12.5638 8.65332 12.3253 8.75209 12.1495 8.92791C11.9737 9.10372 11.8749 9.34218 11.8749 9.59082C11.8749 9.83946 11.9737 10.0779 12.1495 10.2537C12.3253 10.4295 12.5638 10.5283 12.8124 10.5283Z" fill="white"/>
</svg>
