<svg width="16" height="16" viewBox="0 0 16 16" fill="none" xmlns="http://www.w3.org/2000/svg">
<path d="M11.42 13.8L14.2 11.04L13.36 10.2L11.42 12.1L10.64 11.32L9.8 12.18L11.42 13.8ZM2.4 4.8H12V3.2H2.4V4.8ZM12 16C10.8933 16 9.95013 15.6099 9.1704 14.8296C8.39066 14.0493 8.00053 13.1061 8 12C7.99946 10.8939 8.3896 9.95067 9.1704 9.1704C9.9512 8.39013 10.8944 8 12 8C13.1056 8 14.0491 8.39013 14.8304 9.1704C15.6117 9.95067 16.0016 10.8939 16 12C15.9984 13.1061 15.6083 14.0496 14.8296 14.8304C14.0509 15.6112 13.1077 16.0011 12 16ZM0 15.2V1.6C0 1.16 0.1568 0.783467 0.4704 0.4704C0.784 0.157333 1.16053 0.000533333 1.6 0H12.8C13.24 0 13.6168 0.1568 13.9304 0.4704C14.244 0.784 14.4005 1.16053 14.4 1.6V6.94C14.1467 6.82 13.8867 6.72 13.62 6.64C13.3533 6.56 13.08 6.5 12.8 6.46V1.6H1.6V12.84H6.46C6.52666 13.2533 6.63013 13.6467 6.7704 14.02C6.91067 14.3933 7.09386 14.7467 7.32 15.08L7.2 15.2L6 14L4.8 15.2L3.6 14L2.4 15.2L1.2 14L0 15.2ZM2.4 11.2H6.46C6.5 10.92 6.56 10.6467 6.64 10.38C6.72 10.1133 6.82 9.85333 6.94 9.6H2.4V11.2ZM2.4 8H8.08C8.58666 7.50667 9.1768 7.11653 9.8504 6.8296C10.524 6.54267 11.2405 6.39947 12 6.4H2.4V8Z" fill="#006C35"/>
</svg>
