<svg width="13" height="12" viewBox="0 0 13 12" fill="none" xmlns="http://www.w3.org/2000/svg">
<path d="M1.44444 12C1.04722 12 0.707055 11.8696 0.423944 11.6087C0.141315 11.3473 0 11.0333 0 10.6667V1.33333C0 0.966667 0.141315 0.652667 0.423944 0.391333C0.707055 0.130444 1.04722 0 1.44444 0H4.33333C4.73056 0 5.07072 0.130444 5.35383 0.391333C5.63646 0.652667 5.77778 0.966667 5.77778 1.33333V10.6667C5.77778 11.0333 5.63646 11.3473 5.35383 11.6087C5.07072 11.8696 4.73056 12 4.33333 12H1.44444ZM8.66667 4.66667C8.26944 4.66667 7.92952 4.536 7.64689 4.27467C7.36378 4.01378 7.22222 3.7 7.22222 3.33333V1.33333C7.22222 0.966667 7.36378 0.652667 7.64689 0.391333C7.92952 0.130444 8.26944 0 8.66667 0H11.5556C11.9528 0 12.2929 0.130444 12.5761 0.391333C12.8587 0.652667 13 0.966667 13 1.33333V3.33333C13 3.7 12.8587 4.01378 12.5761 4.27467C12.2929 4.536 11.9528 4.66667 11.5556 4.66667H8.66667ZM8.66667 12C8.26944 12 7.92952 11.8696 7.64689 11.6087C7.36378 11.3473 7.22222 11.0333 7.22222 10.6667V7.33333C7.22222 6.96667 7.36378 6.65267 7.64689 6.39133C7.92952 6.13044 8.26944 6 8.66667 6H11.5556C11.9528 6 12.2929 6.13044 12.5761 6.39133C12.8587 6.65267 13 6.96667 13 7.33333V10.6667C13 11.0333 12.8587 11.3473 12.5761 11.6087C12.2929 11.8696 11.9528 12 11.5556 12H8.66667Z" fill="#000176"/>
</svg>
