<svg width="52" height="52" viewBox="0 0 52 52" fill="none" xmlns="http://www.w3.org/2000/svg">
<circle cx="26" cy="26" r="26" fill="white"/>
<path d="M22.9406 38.589V28.042H18.8088C18.5943 28.042 18.3886 27.9587 18.2369 27.8105C18.0852 27.6623 18 27.4613 18 27.2518V23.0802C18 22.8706 18.0852 22.6696 18.2369 22.5215C18.3886 22.3733 18.5943 22.29 18.8088 22.29H22.9243V18.2519C22.8258 17.2942 22.9432 16.3272 23.2681 15.4186C23.593 14.51 24.1175 13.6819 24.8049 12.9925C25.4923 12.3031 26.3259 11.7691 27.2471 11.428C28.1682 11.0869 29.1547 10.9469 30.1371 11.018H33.5802C33.7968 11.0176 34.0048 11.1004 34.1595 11.2485C34.3141 11.3966 34.403 11.5981 34.4069 11.8097V15.3418C34.4022 15.553 34.3131 15.7539 34.1585 15.9016C34.004 16.0494 33.7964 16.1321 33.5802 16.132H31.4283C29.1041 16.132 28.6574 17.2079 28.6574 18.7898V22.2886H34.1828C34.2976 22.2848 34.4119 22.3056 34.5177 22.3494C34.6235 22.3932 34.7182 22.459 34.7953 22.5422C34.8725 22.6254 34.9301 22.7241 34.9643 22.8313C34.9984 22.9384 35.0082 23.0516 34.9931 23.1629L34.4929 27.3504C34.4679 27.5422 34.3717 27.7183 34.2227 27.8455C34.0736 27.9727 33.882 28.0421 33.6841 28.0405H28.6915V38.5876C28.6944 38.7739 28.6588 38.9589 28.5871 39.1316C28.5153 39.3043 28.4088 39.4611 28.2739 39.5928C28.1389 39.7245 27.9783 39.8284 27.8015 39.8983C27.6247 39.9682 27.4353 40.0028 27.2445 39.9998H24.3698C24.1806 40.0004 23.9931 39.9642 23.8184 39.8932C23.6436 39.8223 23.4851 39.718 23.3521 39.5865C23.219 39.4551 23.1141 39.299 23.0435 39.1275C22.9728 38.956 22.9379 38.7739 22.9406 38.589Z" fill="#1E1E1E"/>
</svg>
