<svg width="16" height="16" viewBox="0 0 16 16" fill="none" xmlns="http://www.w3.org/2000/svg">
<path d="M16 11.3516L11.3119 15.7109L9.04787 13.6016L9.80537 12.8984L11.3119 14.2891L15.2425 10.6484L16 11.3516ZM7.54129 5H4.30931V4H7.54129V5ZM7.54129 7H4.30931V6H7.54129V7ZM4.30931 8H7.54129V9H4.30931V8ZM3.23198 5H2.15466V4H3.23198V5ZM3.23198 7H2.15466V6H3.23198V7ZM2.15466 8H3.23198V9H2.15466V8ZM8.61862 5V1H1.07733V15H8.61862V16H0V0H9.38453L14.0053 4.28906V10L12.9279 11V5H8.61862ZM9.69595 4H12.162L9.69595 1.71094V4Z" fill="white"/>
</svg>
