<svg width="15" height="14" viewBox="0 0 15 14" fill="none" xmlns="http://www.w3.org/2000/svg">
<path d="M7.5 13C11.0899 13 14 10.3137 14 7C14 3.68629 11.0899 1 7.5 1C3.91015 1 1 3.68629 1 7C1 10.3137 3.91015 13 7.5 13Z" stroke="white" stroke-width="1.5"/>
<path d="M7.49999 9.4001C8.93593 9.4001 10.1 8.32558 10.1 7.0001C10.1 5.67461 8.93593 4.6001 7.49999 4.6001C6.06405 4.6001 4.89999 5.67461 4.89999 7.0001C4.89999 8.32558 6.06405 9.4001 7.49999 9.4001Z" stroke="white" stroke-width="1.5"/>
<path d="M9.45001 5.1998L12.05 2.7998M2.95001 11.1998L5.55001 8.7998M5.55001 5.1998L2.95001 2.7998M12.05 11.1998L9.45001 8.7998" stroke="white" stroke-width="1.5"/>
</svg>
