<svg width="11" height="12" viewBox="0 0 11 12" fill="none" xmlns="http://www.w3.org/2000/svg">
<path d="M5.5 11.5003C4.56667 11.5003 3.70833 11.2878 2.925 10.8628C2.14167 10.4378 1.5 9.86693 1 9.15026V10.0003C1 10.1419 0.952167 10.2606 0.8565 10.3563C0.7605 10.4523 0.641667 10.5003 0.5 10.5003C0.358333 10.5003 0.239667 10.4523 0.144 10.3563C0.048 10.2606 0 10.1419 0 10.0003V8.00027C0 7.8586 0.048 7.73977 0.144 7.64377C0.239667 7.5481 0.358333 7.50027 0.5 7.50027H2.5C2.64167 7.50027 2.7605 7.5481 2.8565 7.64377C2.95217 7.73977 3 7.8586 3 8.00027C3 8.14193 2.95217 8.2606 2.8565 8.35627C2.7605 8.45227 2.64167 8.50027 2.5 8.50027H1.775C2.175 9.10027 2.7 9.5836 3.35 9.95026C4 10.3169 4.71667 10.5003 5.5 10.5003C6.41667 10.5003 7.23967 10.2566 7.969 9.76927C8.698 9.2816 9.24167 8.6461 9.6 7.86277C9.65 7.75443 9.725 7.67527 9.825 7.62527C9.925 7.57527 10.0333 7.56277 10.15 7.58777C10.3 7.62943 10.4125 7.7211 10.4875 7.86277C10.5625 8.00443 10.5667 8.1461 10.5 8.28777C10.0667 9.2461 9.40417 10.0211 8.5125 10.6128C7.62083 11.2044 6.61667 11.5003 5.5 11.5003ZM0.4875 5.48777C0.3625 5.45443 0.2605 5.3836 0.1815 5.27527C0.102167 5.16693 0.0791667 5.04193 0.1125 4.90027C0.1875 4.55027 0.293833 4.21477 0.4315 3.89377C0.568833 3.5731 0.733333 3.26693 0.925 2.97527C1.00833 2.8586 1.11883 2.7856 1.2565 2.75627C1.39383 2.72727 1.52083 2.7586 1.6375 2.85027C1.7375 2.92527 1.8 3.02727 1.825 3.15627C1.85 3.2856 1.82917 3.40443 1.7625 3.51277C1.60417 3.75443 1.46667 4.0106 1.35 4.28127C1.23333 4.55227 1.14583 4.8336 1.0875 5.12527C1.0625 5.26693 0.9895 5.3711 0.8685 5.43777C0.747833 5.50443 0.620833 5.5211 0.4875 5.48777ZM2.375 2.17527C2.275 2.07527 2.23333 1.9461 2.25 1.78777C2.26667 1.62943 2.34167 1.50443 2.475 1.41277C2.76667 1.2211 3.07283 1.05643 3.3935 0.918766C3.7145 0.781433 4.05 0.679433 4.4 0.612766C4.54167 0.587766 4.66867 0.612766 4.781 0.687766C4.89367 0.762766 4.9625 0.862766 4.9875 0.987766C5.0125 1.12943 4.99167 1.2586 4.925 1.37527C4.85833 1.49193 4.75417 1.56277 4.6125 1.58777C4.32083 1.65443 4.04167 1.73993 3.775 1.84427C3.50833 1.94827 3.25417 2.0836 3.0125 2.25027C2.9125 2.31693 2.80417 2.34393 2.6875 2.33127C2.57083 2.31893 2.46667 2.26693 2.375 2.17527ZM4.725 6.78777L3.5 6.22527C3.4 6.1836 3.35 6.1086 3.35 6.00027C3.35 5.89193 3.4 5.81693 3.5 5.77527L4.725 5.22527L5.275 4.00027C5.31667 3.90027 5.39167 3.85027 5.5 3.85027C5.60833 3.85027 5.68333 3.90027 5.725 4.00027L6.275 5.22527L7.5 5.77527C7.6 5.81693 7.65 5.89193 7.65 6.00027C7.65 6.1086 7.6 6.1836 7.5 6.22527L6.275 6.77527L5.725 8.00027C5.68333 8.10027 5.60833 8.15027 5.5 8.15027C5.39167 8.15027 5.31667 8.10027 5.275 8.00027L4.725 6.78777ZM8.6375 2.15027C8.55417 2.25027 8.45217 2.3106 8.3315 2.33127C8.2105 2.35227 8.09583 2.32943 7.9875 2.26277C7.74583 2.10443 7.48967 1.96693 7.219 1.85027C6.948 1.7336 6.66667 1.6461 6.375 1.58777C6.23333 1.56277 6.12717 1.4856 6.0565 1.35627C5.9855 1.22727 5.97083 1.0961 6.0125 0.962766C6.04583 0.837766 6.11883 0.741933 6.2315 0.675266C6.34383 0.6086 6.46667 0.587766 6.6 0.612766C6.95 0.679433 7.28533 0.781433 7.606 0.918766C7.927 1.05643 8.23333 1.2211 8.525 1.41277C8.65 1.4961 8.723 1.6106 8.744 1.75627C8.76467 1.90227 8.72917 2.0336 8.6375 2.15027ZM10.5125 5.48777C10.3792 5.5211 10.2522 5.50443 10.1315 5.43777C10.0105 5.3711 9.9375 5.26693 9.9125 5.12527C9.85417 4.8336 9.76867 4.55227 9.656 4.28127C9.54367 4.0106 9.40417 3.75443 9.2375 3.51277C9.1625 3.3961 9.1395 3.2731 9.1685 3.14377C9.19783 3.01477 9.26667 2.91277 9.375 2.83777C9.49167 2.75443 9.61667 2.72727 9.75 2.75627C9.88333 2.7856 9.99167 2.8586 10.075 2.97527C10.2667 3.26693 10.4313 3.5731 10.569 3.89377C10.7063 4.21477 10.8125 4.55027 10.8875 4.90027C10.9208 5.04193 10.898 5.16693 10.819 5.27527C10.7397 5.3836 10.6375 5.45443 10.5125 5.48777Z" fill="#F4E7CC"/>
</svg>
