<svg width="52" height="52" viewBox="0 0 52 52" fill="none" xmlns="http://www.w3.org/2000/svg">
<circle cx="26" cy="26" r="26" fill="white"/>
<path d="M26.5 21.9855C24.5647 21.9855 22.9853 23.5648 22.9853 25.5002C22.9853 27.4355 24.5647 29.0149 26.5 29.0149C28.4354 29.0149 30.0147 27.4355 30.0147 25.5002C30.0147 23.5648 28.4354 21.9855 26.5 21.9855ZM37.0416 25.5002C37.0416 24.0447 37.0548 22.6024 36.9731 21.1496C36.8913 19.4621 36.5064 17.9645 35.2724 16.7305C34.0357 15.4939 32.5407 15.1115 30.8532 15.0298C29.3978 14.948 27.9555 14.9612 26.5026 14.9612C25.0472 14.9612 23.6049 14.948 22.1521 15.0298C20.4646 15.1115 18.9669 15.4965 17.7329 16.7305C16.4963 17.9671 16.114 19.4621 16.0322 21.1496C15.9505 22.6051 15.9637 24.0474 15.9637 25.5002C15.9637 26.953 15.9505 28.398 16.0322 29.8508C16.114 31.5383 16.4989 33.0359 17.7329 34.2699C18.9695 35.5065 20.4646 35.8889 22.1521 35.9706C23.6075 36.0523 25.0498 36.0392 26.5026 36.0392C27.9581 36.0392 29.4004 36.0523 30.8532 35.9706C32.5407 35.8889 34.0384 35.5039 35.2724 34.2699C36.509 33.0333 36.8913 31.5383 36.9731 29.8508C37.0574 28.398 37.0416 26.9557 37.0416 25.5002ZM26.5 30.9081C23.5073 30.9081 21.0921 28.4929 21.0921 25.5002C21.0921 22.5075 23.5073 20.0923 26.5 20.0923C29.4927 20.0923 31.9079 22.5075 31.9079 25.5002C31.9079 28.4929 29.4927 30.9081 26.5 30.9081ZM32.1294 21.1338C31.4307 21.1338 30.8664 20.5695 30.8664 19.8708C30.8664 19.1721 31.4307 18.6078 32.1294 18.6078C32.8281 18.6078 33.3924 19.1721 33.3924 19.8708C33.3926 20.0367 33.3601 20.201 33.2967 20.3544C33.2333 20.5077 33.1402 20.647 33.0229 20.7643C32.9056 20.8817 32.7663 20.9747 32.613 21.0381C32.4596 21.1015 32.2953 21.134 32.1294 21.1338Z" fill="#1E1E1E"/>
</svg>
