<svg width="52" height="52" viewBox="0 0 52 52" fill="none" xmlns="http://www.w3.org/2000/svg">
<circle cx="26" cy="26" r="26" fill="white"/>
<path d="M18.606 19.6964C19.9655 19.6964 21.0675 18.5127 21.0675 17.0525C21.0675 15.5924 19.9655 14.4087 18.606 14.4087C17.2466 14.4087 16.1445 15.5924 16.1445 17.0525C16.1445 18.5127 17.2466 19.6964 18.606 19.6964Z" fill="#1E1E1E"/>
<path d="M23.3917 21.6999V36.3679H27.6318V29.1142C27.6318 27.2002 27.9671 25.3467 30.1766 25.3467C32.3557 25.3467 32.3827 27.5349 32.3827 29.2351V36.3691H36.6251V28.3252C36.6251 24.3739 35.8331 21.3374 31.5333 21.3374C29.4689 21.3374 28.0852 22.5542 27.5193 23.7057H27.4619V21.6999H23.3917ZM16.4819 21.6999H20.7288V36.3679H16.4819V21.6999Z" fill="#1E1E1E"/>
</svg>
