<svg width="13" height="13" viewBox="0 0 13 13" fill="none" xmlns="http://www.w3.org/2000/svg">
<path d="M13 8.81384L9.19095 12.0914L7.35139 10.5055L7.96686 9.97684L9.19095 11.0224L12.3845 8.2852L13 8.81384ZM6.1273 4.03849H3.50132V3.28665H6.1273V4.03849ZM6.1273 5.54216H3.50132V4.79033H6.1273V5.54216ZM3.50132 6.294H6.1273V7.04584H3.50132V6.294ZM2.62599 4.03849H1.75066V3.28665H2.62599V4.03849ZM2.62599 5.54216H1.75066V4.79033H2.62599V5.54216ZM1.75066 6.294H2.62599V7.04584H1.75066V6.294ZM7.00263 4.03849V1.03114H0.875329V11.5569H7.00263V12.3087H0V0.279297H7.62493L11.3793 3.50398V7.79768L10.5039 8.54952V4.03849H7.00263ZM7.87796 3.28665H9.88164L7.87796 1.56565V3.28665Z" fill="white"/>
</svg>
