<svg width="13" height="13" viewBox="0 0 13 13" fill="none" xmlns="http://www.w3.org/2000/svg">
<path d="M2.32143 0.353027C1.70575 0.353027 1.11528 0.669098 0.679931 1.23171C0.244578 1.79432 0 2.55738 0 3.35303V3.95303H13V3.35303C13 2.55738 12.7554 1.79432 12.3201 1.23171C11.8847 0.669098 11.2943 0.353027 10.6786 0.353027H2.32143ZM13 5.15303H0V9.35303C0 10.1487 0.244578 10.9117 0.679931 11.4743C1.11528 12.037 1.70575 12.353 2.32143 12.353H10.6786C11.2943 12.353 11.8847 12.037 12.3201 11.4743C12.7554 10.9117 13 10.1487 13 9.35303V5.15303ZM8.82143 8.75303H10.6786C10.8017 8.75303 10.9198 8.81624 11.0069 8.92876C11.0939 9.04128 11.1429 9.1939 11.1429 9.35303C11.1429 9.51216 11.0939 9.66477 11.0069 9.77729C10.9198 9.88981 10.8017 9.95303 10.6786 9.95303H8.82143C8.69829 9.95303 8.5802 9.88981 8.49313 9.77729C8.40606 9.66477 8.35714 9.51216 8.35714 9.35303C8.35714 9.1939 8.40606 9.04128 8.49313 8.92876C8.5802 8.81624 8.69829 8.75303 8.82143 8.75303Z" fill="white"/>
</svg>
