<svg width="12" height="14" viewBox="0 0 12 14" fill="none" xmlns="http://www.w3.org/2000/svg">
<path fill-rule="evenodd" clip-rule="evenodd" d="M3.33333 3.00656C3.33333 2.24038 3.61428 1.50558 4.11438 0.963812C4.61448 0.42204 5.29276 0.117676 6 0.117676C6.70724 0.117676 7.38552 0.42204 7.88562 0.963812C8.38572 1.50558 8.66667 2.24038 8.66667 3.00656C8.66667 3.77275 8.38572 4.50755 7.88562 5.04932C7.38552 5.59109 6.70724 5.89545 6 5.89545C5.29276 5.89545 4.61448 5.59109 4.11438 5.04932C3.61428 4.50755 3.33333 3.77275 3.33333 3.00656ZM3.33333 7.3399C2.44928 7.3399 1.60143 7.72035 0.976311 8.39757C0.351189 9.07478 0 9.99328 0 10.951C0 11.5256 0.210714 12.0767 0.585787 12.4831C0.960859 12.8894 1.46957 13.1177 2 13.1177H10C10.5304 13.1177 11.0391 12.8894 11.4142 12.4831C11.7893 12.0767 12 11.5256 12 10.951C12 9.99328 11.6488 9.07478 11.0237 8.39757C10.3986 7.72035 9.55072 7.3399 8.66667 7.3399H3.33333Z" fill="white"/>
</svg>
