<svg width="12" height="12" viewBox="0 0 12 12" fill="none" xmlns="http://www.w3.org/2000/svg">
<path d="M6 11.5003C5.06667 11.5003 4.20833 11.2878 3.425 10.8628C2.64167 10.4378 2 9.86693 1.5 9.15026V10.0003C1.5 10.1419 1.45217 10.2606 1.3565 10.3563C1.2605 10.4523 1.14167 10.5003 1 10.5003C0.858333 10.5003 0.739667 10.4523 0.644 10.3563C0.548 10.2606 0.5 10.1419 0.5 10.0003V8.00027C0.5 7.8586 0.548 7.73977 0.644 7.64377C0.739667 7.5481 0.858333 7.50027 1 7.50027H3C3.14167 7.50027 3.2605 7.5481 3.3565 7.64377C3.45217 7.73977 3.5 7.8586 3.5 8.00027C3.5 8.14193 3.45217 8.2606 3.3565 8.35627C3.2605 8.45227 3.14167 8.50027 3 8.50027H2.275C2.675 9.10027 3.2 9.5836 3.85 9.95026C4.5 10.3169 5.21667 10.5003 6 10.5003C6.91667 10.5003 7.73967 10.2566 8.469 9.76927C9.198 9.2816 9.74167 8.6461 10.1 7.86277C10.15 7.75443 10.225 7.67527 10.325 7.62527C10.425 7.57527 10.5333 7.56277 10.65 7.58777C10.8 7.62943 10.9125 7.7211 10.9875 7.86277C11.0625 8.00443 11.0667 8.1461 11 8.28777C10.5667 9.2461 9.90417 10.0211 9.0125 10.6128C8.12083 11.2044 7.11667 11.5003 6 11.5003ZM0.9875 5.48777C0.8625 5.45443 0.7605 5.3836 0.6815 5.27527C0.602167 5.16693 0.579167 5.04193 0.6125 4.90027C0.6875 4.55027 0.793833 4.21477 0.9315 3.89377C1.06883 3.5731 1.23333 3.26693 1.425 2.97527C1.50833 2.8586 1.61883 2.7856 1.7565 2.75627C1.89383 2.72727 2.02083 2.7586 2.1375 2.85027C2.2375 2.92527 2.3 3.02727 2.325 3.15627C2.35 3.2856 2.32917 3.40443 2.2625 3.51277C2.10417 3.75443 1.96667 4.0106 1.85 4.28127C1.73333 4.55227 1.64583 4.8336 1.5875 5.12527C1.5625 5.26693 1.4895 5.3711 1.3685 5.43777C1.24783 5.50443 1.12083 5.5211 0.9875 5.48777ZM2.875 2.17527C2.775 2.07527 2.73333 1.9461 2.75 1.78777C2.76667 1.62943 2.84167 1.50443 2.975 1.41277C3.26667 1.2211 3.57283 1.05643 3.8935 0.918766C4.2145 0.781433 4.55 0.679433 4.9 0.612766C5.04167 0.587766 5.16867 0.612766 5.281 0.687766C5.39367 0.762766 5.4625 0.862766 5.4875 0.987766C5.5125 1.12943 5.49167 1.2586 5.425 1.37527C5.35833 1.49193 5.25417 1.56277 5.1125 1.58777C4.82083 1.65443 4.54167 1.73993 4.275 1.84427C4.00833 1.94827 3.75417 2.0836 3.5125 2.25027C3.4125 2.31693 3.30417 2.34393 3.1875 2.33127C3.07083 2.31893 2.96667 2.26693 2.875 2.17527ZM5.225 6.78777L4 6.22527C3.9 6.1836 3.85 6.1086 3.85 6.00027C3.85 5.89193 3.9 5.81693 4 5.77527L5.225 5.22527L5.775 4.00027C5.81667 3.90027 5.89167 3.85027 6 3.85027C6.10833 3.85027 6.18333 3.90027 6.225 4.00027L6.775 5.22527L8 5.77527C8.1 5.81693 8.15 5.89193 8.15 6.00027C8.15 6.1086 8.1 6.1836 8 6.22527L6.775 6.77527L6.225 8.00027C6.18333 8.10027 6.10833 8.15027 6 8.15027C5.89167 8.15027 5.81667 8.10027 5.775 8.00027L5.225 6.78777ZM9.1375 2.15027C9.05417 2.25027 8.95217 2.3106 8.8315 2.33127C8.7105 2.35227 8.59583 2.32943 8.4875 2.26277C8.24583 2.10443 7.98967 1.96693 7.719 1.85027C7.448 1.7336 7.16667 1.6461 6.875 1.58777C6.73333 1.56277 6.62717 1.4856 6.5565 1.35627C6.4855 1.22727 6.47083 1.0961 6.5125 0.962766C6.54583 0.837766 6.61883 0.741933 6.7315 0.675266C6.84383 0.6086 6.96667 0.587766 7.1 0.612766C7.45 0.679433 7.78533 0.781433 8.106 0.918766C8.427 1.05643 8.73333 1.2211 9.025 1.41277C9.15 1.4961 9.223 1.6106 9.244 1.75627C9.26467 1.90227 9.22917 2.0336 9.1375 2.15027ZM11.0125 5.48777C10.8792 5.5211 10.7522 5.50443 10.6315 5.43777C10.5105 5.3711 10.4375 5.26693 10.4125 5.12527C10.3542 4.8336 10.2687 4.55227 10.156 4.28127C10.0437 4.0106 9.90417 3.75443 9.7375 3.51277C9.6625 3.3961 9.6395 3.2731 9.6685 3.14377C9.69783 3.01477 9.76667 2.91277 9.875 2.83777C9.99167 2.75443 10.1167 2.72727 10.25 2.75627C10.3833 2.7856 10.4917 2.8586 10.575 2.97527C10.7667 3.26693 10.9313 3.5731 11.069 3.89377C11.2063 4.21477 11.3125 4.55027 11.3875 4.90027C11.4208 5.04193 11.398 5.16693 11.319 5.27527C11.2397 5.3836 11.1375 5.45443 11.0125 5.48777Z" fill="#FFAA04"/>
</svg>
