<svg width="14" height="15" viewBox="0 0 14 15" fill="none" xmlns="http://www.w3.org/2000/svg">
<path d="M9.625 9.86035V12.4854H2.625V1.98535H7V1.11035H2.625C2.39294 1.11035 2.17038 1.20254 2.00628 1.36663C1.84219 1.53073 1.75 1.75329 1.75 1.98535V12.4854C1.75 12.7174 1.84219 12.94 2.00628 13.1041C2.17038 13.2682 2.39294 13.3604 2.625 13.3604H9.625C9.85706 13.3604 10.0796 13.2682 10.2437 13.1041C10.4078 12.94 10.5 12.7174 10.5 12.4854V9.86035H9.625Z" fill="white"/>
<path d="M12.9237 2.75518L11.48 1.31143C11.3491 1.18317 11.1732 1.11133 10.99 1.11133C10.8068 1.11133 10.6308 1.18317 10.5 1.31143L4.375 7.43643V9.86018H6.79437L12.9194 3.73518C13.0476 3.60433 13.1195 3.42841 13.1195 3.24518C13.1195 3.06195 13.0476 2.88603 12.9194 2.75518H12.9237ZM6.43125 8.98518H5.25V7.80393L9.38 3.66955L10.5656 4.85518L6.43125 8.98518ZM11.1825 4.2383L9.99687 3.05268L10.99 2.05955L12.1756 3.24518L11.1825 4.2383Z" fill="white"/>
</svg>
