<svg width="13" height="12" viewBox="0 0 13 12" fill="none" xmlns="http://www.w3.org/2000/svg">
<rect width="12" height="12" transform="translate(0.5)" fill="#F11911"/>
<mask id="mask0_1372_745" style="mask-type:alpha" maskUnits="userSpaceOnUse" x="0" y="0" width="13" height="12">
<rect x="0.5" width="12" height="12" fill="#D9D9D9"/>
</mask>
<g mask="url(#mask0_1372_745)">
<path d="M6.5 11.5003C5.56667 11.5003 4.70833 11.2878 3.925 10.8628C3.14167 10.4378 2.5 9.86693 2 9.15026V10.0003C2 10.1419 1.95217 10.2606 1.8565 10.3563C1.7605 10.4523 1.64167 10.5003 1.5 10.5003C1.35833 10.5003 1.23967 10.4523 1.144 10.3563C1.048 10.2606 1 10.1419 1 10.0003V8.00027C1 7.8586 1.048 7.73977 1.144 7.64377C1.23967 7.5481 1.35833 7.50027 1.5 7.50027H3.5C3.64167 7.50027 3.7605 7.5481 3.8565 7.64377C3.95217 7.73977 4 7.8586 4 8.00027C4 8.14193 3.95217 8.2606 3.8565 8.35627C3.7605 8.45227 3.64167 8.50027 3.5 8.50027H2.775C3.175 9.10027 3.7 9.5836 4.35 9.95026C5 10.3169 5.71667 10.5003 6.5 10.5003C7.41667 10.5003 8.23967 10.2566 8.969 9.76927C9.698 9.2816 10.2417 8.6461 10.6 7.86277C10.65 7.75443 10.725 7.67527 10.825 7.62527C10.925 7.57527 11.0333 7.56277 11.15 7.58777C11.3 7.62943 11.4125 7.7211 11.4875 7.86277C11.5625 8.00443 11.5667 8.1461 11.5 8.28777C11.0667 9.2461 10.4042 10.0211 9.5125 10.6128C8.62083 11.2044 7.61667 11.5003 6.5 11.5003ZM1.4875 5.48777C1.3625 5.45443 1.2605 5.3836 1.1815 5.27527C1.10217 5.16693 1.07917 5.04193 1.1125 4.90027C1.1875 4.55027 1.29383 4.21477 1.4315 3.89377C1.56883 3.5731 1.73333 3.26693 1.925 2.97527C2.00833 2.8586 2.11883 2.7856 2.2565 2.75627C2.39383 2.72727 2.52083 2.7586 2.6375 2.85027C2.7375 2.92527 2.8 3.02727 2.825 3.15627C2.85 3.2856 2.82917 3.40443 2.7625 3.51277C2.60417 3.75443 2.46667 4.0106 2.35 4.28127C2.23333 4.55227 2.14583 4.8336 2.0875 5.12527C2.0625 5.26693 1.9895 5.3711 1.8685 5.43777C1.74783 5.50443 1.62083 5.5211 1.4875 5.48777ZM3.375 2.17527C3.275 2.07527 3.23333 1.9461 3.25 1.78777C3.26667 1.62943 3.34167 1.50443 3.475 1.41277C3.76667 1.2211 4.07283 1.05643 4.3935 0.918766C4.7145 0.781433 5.05 0.679433 5.4 0.612766C5.54167 0.587766 5.66867 0.612766 5.781 0.687766C5.89367 0.762766 5.9625 0.862766 5.9875 0.987766C6.0125 1.12943 5.99167 1.2586 5.925 1.37527C5.85833 1.49193 5.75417 1.56277 5.6125 1.58777C5.32083 1.65443 5.04167 1.73993 4.775 1.84427C4.50833 1.94827 4.25417 2.0836 4.0125 2.25027C3.9125 2.31693 3.80417 2.34393 3.6875 2.33127C3.57083 2.31893 3.46667 2.26693 3.375 2.17527ZM5.725 6.78777L4.5 6.22527C4.4 6.1836 4.35 6.1086 4.35 6.00027C4.35 5.89193 4.4 5.81693 4.5 5.77527L5.725 5.22527L6.275 4.00027C6.31667 3.90027 6.39167 3.85027 6.5 3.85027C6.60833 3.85027 6.68333 3.90027 6.725 4.00027L7.275 5.22527L8.5 5.77527C8.6 5.81693 8.65 5.89193 8.65 6.00027C8.65 6.1086 8.6 6.1836 8.5 6.22527L7.275 6.77527L6.725 8.00027C6.68333 8.10027 6.60833 8.15027 6.5 8.15027C6.39167 8.15027 6.31667 8.10027 6.275 8.00027L5.725 6.78777ZM9.6375 2.15027C9.55417 2.25027 9.45217 2.3106 9.3315 2.33127C9.2105 2.35227 9.09583 2.32943 8.9875 2.26277C8.74583 2.10443 8.48967 1.96693 8.219 1.85027C7.948 1.7336 7.66667 1.6461 7.375 1.58777C7.23333 1.56277 7.12717 1.4856 7.0565 1.35627C6.9855 1.22727 6.97083 1.0961 7.0125 0.962766C7.04583 0.837766 7.11883 0.741933 7.2315 0.675266C7.34383 0.6086 7.46667 0.587766 7.6 0.612766C7.95 0.679433 8.28533 0.781433 8.606 0.918766C8.927 1.05643 9.23333 1.2211 9.525 1.41277C9.65 1.4961 9.723 1.6106 9.744 1.75627C9.76467 1.90227 9.72917 2.0336 9.6375 2.15027ZM11.5125 5.48777C11.3792 5.5211 11.2522 5.50443 11.1315 5.43777C11.0105 5.3711 10.9375 5.26693 10.9125 5.12527C10.8542 4.8336 10.7687 4.55227 10.656 4.28127C10.5437 4.0106 10.4042 3.75443 10.2375 3.51277C10.1625 3.3961 10.1395 3.2731 10.1685 3.14377C10.1978 3.01477 10.2667 2.91277 10.375 2.83777C10.4917 2.75443 10.6167 2.72727 10.75 2.75627C10.8833 2.7856 10.9917 2.8586 11.075 2.97527C11.2667 3.26693 11.4313 3.5731 11.569 3.89377C11.7063 4.21477 11.8125 4.55027 11.8875 4.90027C11.9208 5.04193 11.898 5.16693 11.819 5.27527C11.7397 5.3836 11.6375 5.45443 11.5125 5.48777Z" fill="#F4E7CC"/>
</g>
</svg>
