<svg width="20" height="25" viewBox="0 0 20 25" fill="none" xmlns="http://www.w3.org/2000/svg">
<path d="M8.8125 20.9H11.1875V15.89L13.0875 17.81L14.75 16.1L10 11.3L5.25 16.1L6.94219 17.78L8.8125 15.89V20.9ZM2.875 24.5C2.22187 24.5 1.66296 24.2652 1.19825 23.7956C0.733541 23.326 0.500792 22.7608 0.5 22.1V2.9C0.5 2.24 0.73275 1.6752 1.19825 1.2056C1.66375 0.736 2.22267 0.5008 2.875 0.5H12.375L19.5 7.7V22.1C19.5 22.76 19.2676 23.3252 18.8029 23.7956C18.3382 24.266 17.7789 24.5008 17.125 24.5H2.875ZM11.1875 8.9V2.9H2.875V22.1H17.125V8.9H11.1875Z" fill="#354EF3"/>
</svg>
