<svg width="53" height="49" viewBox="0 0 53 49" fill="none" xmlns="http://www.w3.org/2000/svg">
<path d="M16.4746 39.4859H12.2345C5.74203 39.0571 2.82715 34.443 2.82715 30.3392C2.82715 26.2355 5.74206 21.6009 12.1241 21.1926C13.0296 21.1109 13.8245 21.7642 13.8908 22.6217C13.957 23.4588 13.2726 24.1938 12.3451 24.2551C8.06089 24.5409 6.13965 27.5217 6.13965 30.3596C6.13965 33.1975 8.06089 36.1784 12.3451 36.4642H16.4746C17.38 36.4642 18.1309 37.1584 18.1309 37.9955C18.1309 38.8326 17.38 39.4859 16.4746 39.4859Z" fill="#354EF3"/>
<path d="M36.8127 39.4858C36.7686 39.4858 36.7465 39.4858 36.7023 39.4858C35.7969 39.4858 34.9578 38.7916 34.9578 37.9545C34.9578 37.0766 35.6644 36.4233 36.5919 36.4233C39.3082 36.4233 41.7374 35.5453 43.6365 33.9733C47.0815 31.1966 47.3023 27.1949 46.3749 24.3774C45.4473 21.5803 42.8636 18.3749 38.3586 17.8645C37.6298 17.7828 37.0556 17.2724 36.9231 16.5987C36.0398 11.6987 33.1911 8.30951 28.8628 7.08451C24.4019 5.79826 19.1902 7.06409 15.944 10.2083C12.786 13.2503 12.0573 17.5174 13.8902 22.2133C14.1994 23.0095 13.7578 23.8874 12.8966 24.1733C12.0353 24.4591 11.0857 24.0508 10.7765 23.2545C8.54611 17.497 9.56197 11.9845 13.5591 8.10534C17.6445 4.14451 24.2032 2.57241 29.8345 4.16491C35.002 5.63491 38.6456 9.57533 39.9706 15.047C44.4756 15.9862 48.0973 19.1508 49.5327 23.5199C51.1007 28.277 49.6874 33.177 45.8228 36.2804C43.3715 38.322 40.1694 39.4858 36.8127 39.4858Z" fill="#354EF3"/>
<path d="M26.5002 45.4883C22.0614 45.4883 17.9098 43.3037 15.6352 39.7717C15.3923 39.4246 15.1494 39.0162 14.9506 38.5671C14.1998 37.1175 13.8022 35.4637 13.8022 33.7487C13.8022 27.2767 19.4997 22.0092 26.5002 22.0092C33.5006 22.0092 39.1981 27.2767 39.1981 33.7487C39.1981 35.4842 38.8006 37.1175 38.0056 38.6283C37.829 39.0162 37.5861 39.4246 37.3211 39.8125C35.0906 43.3037 30.9389 45.4883 26.5002 45.4883ZM26.5002 25.0717C21.3327 25.0717 17.1147 28.9712 17.1147 33.7487C17.1147 35.0146 17.4018 36.1987 17.9539 37.2808C18.1306 37.6279 18.2851 37.9137 18.4618 38.1792C20.1401 40.8129 23.2097 42.4258 26.4781 42.4258C29.7464 42.4258 32.816 40.8129 34.4722 38.22C34.671 37.9137 34.8477 37.6279 34.9802 37.3421C35.5765 36.2191 35.8635 35.035 35.8635 33.7691C35.8856 28.9712 31.6677 25.0717 26.5002 25.0717Z" fill="#354EF3"/>
<path d="M25.2408 37.3011C24.8212 37.3011 24.4017 37.1582 24.0705 36.852L21.8841 34.8307C21.2437 34.2386 21.2437 33.2586 21.8841 32.6665C22.5245 32.0745 23.5845 32.0745 24.2249 32.6665L25.285 33.6465L28.8183 30.6249C29.5029 30.0532 30.5408 30.094 31.1592 30.7065C31.7775 31.319 31.7334 32.2991 31.0709 32.8707L26.3671 36.8928C26.0359 37.1582 25.6383 37.3011 25.2408 37.3011Z" fill="#354EF3"/>
</svg>
