<svg width="77" height="78" viewBox="0 0 77 78" fill="none" xmlns="http://www.w3.org/2000/svg">
<path d="M26.7062 69.3192H77V78H0V59.5838L42.35 16.614L60.4963 35.0303L26.7062 69.3192ZM48.3945 10.4767L57.4719 1.2708C58.2741 0.457108 59.362 0 60.4963 0C61.6306 0 62.7185 0.457108 63.5207 1.2708L75.6226 13.5454C76.0203 13.9485 76.3358 14.4272 76.5511 14.9541C76.7664 15.481 76.8772 16.0458 76.8772 16.6162C76.8772 17.1866 76.7664 17.7514 76.5511 18.2783C76.3358 18.8052 76.0203 19.2839 75.6226 19.687L66.5451 28.893L48.3945 10.4767Z" fill="#354EF3"/>
</svg>
