<svg width="63" height="63" viewBox="0 0 63 63" fill="none" xmlns="http://www.w3.org/2000/svg">
<path d="M56 7.2002H7C5.14348 7.2002 3.36301 7.915 2.05025 9.18736C0.737498 10.4597 0 12.1854 0 13.9848L0 44.5156C0 46.315 0.737498 48.0407 2.05025 49.313C3.36301 50.5854 5.14348 51.3002 7 51.3002H56C57.8565 51.3002 59.637 50.5854 60.9497 49.313C62.2625 48.0407 63 46.315 63 44.5156V13.9848C63 12.1854 62.2625 10.4597 60.9497 9.18736C59.637 7.915 57.8565 7.2002 56 7.2002Z" fill="#006C35"/>
<path d="M15.6082 24.5877C16.7142 24.6927 16.1035 22.7169 16.5042 22.3582C16.5795 22.1814 16.7195 22.1797 16.73 22.4037V24.0802C16.7195 24.6262 17.0782 24.7854 17.3565 24.8992C17.647 24.8764 17.8395 24.8869 17.9532 25.1687L18.0897 28.0702C18.0897 28.0702 18.7617 28.2627 18.7932 26.4374C18.8265 25.3664 18.5797 24.4704 18.725 24.2622C18.7302 24.0574 18.991 24.0452 19.173 24.1449C19.4617 24.3479 19.5912 24.5999 20.0392 24.5002C20.7235 24.3129 21.133 23.9804 21.1435 23.4554C21.1032 22.9567 21.0472 22.4579 20.832 21.9592C20.8617 21.8682 20.7007 21.6337 20.7305 21.5427C20.853 21.7352 21.0402 21.7194 21.0822 21.5427C20.9667 21.1594 20.7865 20.7919 20.4925 20.6327C20.251 20.4192 19.8975 20.4629 19.768 20.9074C19.7085 21.4184 19.9535 22.0274 20.3245 22.5227C20.4032 22.7169 20.5152 23.0389 20.4662 23.3294C20.2685 23.4414 20.069 23.3959 19.9045 23.2209C19.9045 23.2209 19.3602 22.8132 19.3602 22.7222C19.5055 21.7982 19.3935 21.6932 19.313 21.4377C19.257 21.0842 19.089 20.9704 18.9525 20.7289C18.816 20.5854 18.6322 20.5854 18.5447 20.7289C18.3032 21.1454 18.4152 22.0414 18.5902 22.4422C18.7145 22.8097 18.907 23.0424 18.816 23.0424C18.7407 23.2507 18.5867 23.2017 18.4747 22.9619C18.3137 22.4649 18.2822 21.7247 18.2822 21.3904C18.2332 20.9774 18.1807 20.0937 17.9095 19.8697C17.7432 19.6439 17.4965 19.7524 17.4107 19.9607C17.3932 20.3702 17.3897 20.7814 17.437 21.1612C17.6225 21.8244 17.682 22.4089 17.773 23.0897C17.7975 24.0014 17.2462 23.4852 17.2707 23.0337C17.3985 22.4474 17.3652 21.5234 17.2515 21.2889C17.1622 21.0562 17.0555 20.9967 16.8385 21.0352C16.667 21.0212 16.2225 21.5077 16.0965 22.3127C16.0965 22.3127 15.9897 22.7274 15.9442 23.0967C15.883 23.5132 15.61 23.8072 15.4175 23.0389C15.2512 22.4807 15.1497 21.1034 14.8715 21.4254C14.791 22.5017 14.6947 24.3952 15.6082 24.5877Z" fill="white"/>
<path d="M17.2725 25.373C16.3625 25.3905 15.0307 26.5683 14.994 27.221C15.953 26.759 16.8962 26.3145 17.8727 25.8385C17.7152 25.6023 17.864 25.3905 17.2725 25.373Z" fill="white"/>
<path d="M22.2898 28.9024C22.7115 27.4972 22.2215 26.4612 22.4508 26.4664C22.9355 26.9897 23.6145 26.5364 23.7633 26.3544C23.828 26.2634 23.9872 26.2039 24.0992 26.3229C24.479 26.5959 25.1475 26.4664 25.2858 25.9869C25.3733 25.5054 25.4271 25.0183 25.4468 24.5292C25.137 24.6254 24.906 24.6902 24.885 24.8179L24.8202 25.2344C24.794 25.3692 24.5262 25.3744 24.5157 25.2029C24.3985 24.6692 23.912 24.5992 23.618 25.4269C23.4203 25.5879 23.0632 25.6194 23.0247 25.3797C23.072 24.8249 22.848 24.7497 22.4 25.0104C22.2565 23.9097 22.1113 22.8579 21.9678 21.7572C22.155 21.7519 22.3265 21.8902 22.4962 21.6767C22.309 21.0939 21.9135 19.9039 21.6948 19.8182C21.588 19.6887 21.497 19.7692 21.3587 19.8024C21.1242 19.8777 20.9055 20.0807 20.9737 20.4744C21.252 22.1632 21.434 23.4494 21.7105 25.1382C21.7525 25.3359 21.588 25.5967 21.3745 25.5704C21.0122 25.3254 20.9212 24.8284 20.3017 24.8494C19.852 24.8547 19.3393 25.3412 19.2763 25.8119C19.201 26.1847 19.1748 26.5907 19.2763 26.9179C19.5913 27.2959 19.971 27.2592 20.3017 27.1734C20.573 27.0614 20.7987 26.7884 20.8932 26.8532C20.958 26.9319 20.909 27.8297 19.6122 28.5192C18.8265 28.8709 18.2017 28.9514 17.8657 28.3109C17.6575 27.9102 17.8815 26.3877 17.3688 26.7412C15.8515 30.6524 20.9213 31.1949 21.4883 26.9022C21.5425 26.7254 21.756 26.5487 21.7927 26.8374C21.6755 30.7259 17.871 30.9937 17.2253 29.7704C17.0643 29.4817 17.017 28.8412 17.0013 28.4562C16.905 27.6914 16.5043 27.9854 16.4413 28.7432C16.3765 29.1649 16.394 29.2839 16.394 29.6882C16.5953 32.7594 21.4953 31.4399 22.2898 28.9024ZM20.3997 26.2459C20.3682 26.3054 20.23 26.2809 20.1285 26.2809C20.013 26.2757 19.9587 26.2564 19.8887 26.1637C19.8572 26.0587 19.9553 25.9589 19.999 25.8802C20.0533 25.7874 20.3455 25.6912 20.4488 25.9502C20.4675 25.9994 20.4728 26.0527 20.4642 26.1047C20.4556 26.1566 20.4334 26.2054 20.3997 26.2459Z" fill="white"/>
<path d="M23.8035 22.7655C24.108 22.6535 25.5517 21.0033 25.5517 21.0033C25.4765 20.9385 25.41 20.8913 25.3347 20.8265C25.2542 20.7565 25.263 20.6865 25.3347 20.6183C25.6917 20.41 25.578 19.9533 25.3907 19.745C25.2694 19.6863 25.1362 19.6563 25.0014 19.6576C24.8666 19.6588 24.734 19.6911 24.6137 19.752C24.3635 19.9918 24.304 20.3768 24.5017 20.6183C24.6942 20.7093 24.8867 20.9035 24.759 21.0103C24.1692 21.6403 22.5522 22.727 22.7395 22.7655C22.7797 22.818 23.772 22.8163 23.8035 22.7655ZM24.8727 20.1738C24.9655 20.151 25.0845 20.2333 25.1405 20.3558C25.1965 20.4783 25.1667 20.5955 25.0757 20.6183H25.0722C24.9812 20.641 24.8622 20.5588 24.8062 20.4363C24.752 20.312 24.7817 20.1965 24.8727 20.1738ZM15.5085 30.2013C15.2705 30.686 15.1707 30.3535 15.1497 30.0823C15.123 29.6267 15.1459 29.1696 15.218 28.719C15.2775 28.334 15.218 28.4513 15.0955 28.607C14.5547 29.468 14.5075 30.756 14.8067 31.1393C14.9642 31.3213 15.225 31.4018 15.4192 31.3423C15.7587 31.1953 15.9075 30.5058 15.827 30.2555C15.7115 30.0788 15.6222 30.0508 15.5085 30.2013ZM33.3252 21.0873C33.9482 21.9238 34.5397 22.776 35.119 23.644C35.2333 24.3942 35.315 25.1333 35.364 25.8613C35.4602 27.2683 35.4882 28.7908 35.4007 30.273C35.6632 30.2835 36.0885 29.846 36.2355 29.2073C36.3317 28.3235 36.2005 26.7503 36.1917 26.2288C36.1801 25.9019 36.1644 25.5752 36.1445 25.2488C36.834 26.3758 37.506 27.5553 38.1622 28.866C38.402 28.754 38.3495 27.4135 38.2095 27.2245C37.6845 26.0993 36.9617 24.9863 36.7307 24.5593C36.645 24.4018 36.3527 23.9538 36.0045 23.441C35.9734 23.0319 35.9244 22.6244 35.8575 22.2195C35.749 21.4705 36.1672 22.3018 36.1095 21.866C35.9747 21.117 35.5582 20.6113 35.0717 19.9253C34.9142 19.703 34.9195 19.6575 34.6762 19.9795C34.5919 20.173 34.5524 20.383 34.5607 20.5938C34.4838 20.4828 34.4027 20.3748 34.3175 20.27L33.5212 19.591C33.3445 19.465 32.914 19.2375 32.837 19.6155C32.8031 19.8806 32.8161 20.1495 32.8755 20.41C32.921 20.5973 33.1922 20.9088 33.3252 21.0873ZM34.6202 21.0453C34.6535 21.1905 34.6885 21.3358 34.7112 21.4845L34.7375 21.6263C34.6638 21.5239 34.5873 21.4235 34.5082 21.3253C34.2212 20.9858 34.4592 21.0593 34.6202 21.0453Z" fill="white"/>
<path d="M38.3582 29.2124C37.7492 29.8476 36.8707 30.6299 35.9152 30.9921C35.812 31.1076 36.1707 31.6029 36.6327 31.6029C37.408 31.5119 38.0905 31.0761 38.7222 29.9299C38.892 29.6639 39.1895 29.0916 39.1965 28.6471C39.2542 26.0466 39.067 24.0219 38.6767 22.1424C38.6506 21.9916 38.6578 21.8369 38.6977 21.6891C38.7467 21.6296 38.9182 21.6891 39.0092 21.5421C39.1405 21.4056 38.6575 20.2856 38.381 19.8551C38.283 19.6626 38.2497 19.5331 38.087 19.8779C37.9155 20.1579 37.8017 20.6461 37.8157 21.1011C38.185 23.6614 38.2987 25.9031 38.5402 28.4634C38.5595 28.7101 38.5227 29.0706 38.3582 29.2124ZM48.5607 22.7199C48.5345 22.5379 48.454 22.1144 48.4855 22.0601C48.5345 21.9306 48.7882 22.0741 48.8792 21.9254C49.0122 21.7906 48.2247 20.7791 47.95 20.3486C47.8502 20.1561 47.817 20.0266 47.6542 20.3714C47.4827 20.6514 47.4232 21.1536 47.4915 21.5946C47.9027 24.3754 48.209 26.4649 48.272 28.9306C48.2352 29.1651 48.2282 29.2911 48.118 29.5851C47.8747 29.8966 47.607 30.2851 47.3532 30.4741C47.1012 30.6614 46.564 30.8416 46.3872 30.9799C45.8325 31.3036 45.8307 31.6729 46.2822 31.6851C47.0557 31.5941 47.9727 31.5311 48.6045 30.5756C48.7742 30.3096 48.9755 29.5869 48.9842 29.1424C49.042 26.5419 48.951 24.5994 48.5607 22.7199ZM42.6965 24.8846C42.7035 24.5276 42.7367 24.0551 42.756 23.7594C42.7647 23.6491 42.791 23.5249 42.896 23.4969C43.0027 23.4689 43.1917 23.6054 43.1935 23.4899C43.1725 23.2641 43.127 22.9281 42.9992 22.7689C42.8242 22.5099 42.3605 22.5729 42.2782 22.9789C42.28 23.1294 42.3482 23.2099 42.336 23.3464C42.315 23.4234 42.2345 23.4759 42.0437 23.3849C42.0752 23.3569 41.9195 23.1416 41.9195 23.1416C41.7707 23.0506 41.5712 23.1469 41.4435 23.2291C41.3978 23.3175 41.3704 23.4143 41.3632 23.5136C41.356 23.6128 41.369 23.7125 41.4015 23.8066C41.6115 24.2039 42.3447 24.8776 42.6965 24.8846Z" fill="white"/>
<path d="M42.4497 21.8413L44.0125 23.754C44.1262 25.1995 44.156 26.3825 44.268 27.828C44.2522 28.4405 44.0632 28.9743 43.883 29.0513C43.883 29.0513 43.6117 29.2088 43.4297 29.0355C43.2967 28.9813 42.7665 28.1518 42.7665 28.1518C42.4952 27.9033 42.3167 27.9733 42.1242 28.1518C41.5922 28.6645 41.3525 29.627 40.992 30.2885C40.8975 30.4373 40.635 30.5633 40.3427 30.278C39.6025 29.2648 40.0365 27.8245 39.9455 28.1955C39.2857 28.9393 39.5762 30.1695 39.725 30.4355C39.942 30.8695 40.1187 31.1495 40.5422 31.3648C40.9272 31.6483 41.2282 31.4698 41.3927 31.272C41.7812 30.8678 41.7865 29.844 41.9685 29.6375C42.0945 29.2648 42.4182 29.3278 42.574 29.494C42.7178 29.6942 42.9066 29.8579 43.1252 29.9718C43.4875 30.292 43.9197 30.3498 44.345 30.0575C44.6355 29.8948 44.8262 29.683 44.996 29.2648C45.185 28.7608 45.0817 26.4438 45.0432 25.0543C45.3145 25.4043 45.5787 25.77 45.8465 26.1358C45.9637 27.296 46.0302 28.451 45.9917 29.6305C45.9637 29.8668 46.8142 28.9305 46.8072 28.486V27.4955C47.2167 28.1115 47.6157 28.7468 47.9902 29.4188C48.2247 29.2963 48.1477 27.975 47.999 27.793C47.5667 27.0685 46.991 26.3143 46.5937 25.7753C46.5675 25.707 46.5535 25.63 46.522 25.5653C46.3627 25.196 46.4625 24.8985 46.3872 24.5065C46.3137 24.1128 46.333 23.5248 46.2192 23.0575C46.1877 22.8755 46.0932 22.291 46.1212 22.2368C46.1667 22.1055 46.3417 22.2403 46.4275 22.0898C46.5552 21.9498 45.9847 20.471 45.6942 20.0475C45.5892 19.8585 45.4002 19.9233 45.1657 20.2313C44.9505 20.4343 45.031 20.8963 45.1132 21.3355C45.318 22.3995 45.4895 23.4198 45.6365 24.4295C45.3218 24.0111 45.0039 23.5952 44.6827 23.1818L44.6687 23.1048C44.6687 23.0855 44.6215 22.1878 44.5795 21.9743C44.5725 21.8885 44.5515 21.8623 44.6425 21.8728C44.7387 21.9533 44.751 21.9585 44.8122 21.9865C44.9102 22.004 44.996 21.8378 44.9382 21.6855L44.0335 20.0195C43.9617 19.9478 43.8672 19.8708 43.7535 20.0388C43.6825 20.1002 43.6257 20.1762 43.587 20.2618C43.5483 20.3473 43.5287 20.4402 43.5295 20.534C43.5575 20.9278 43.6257 21.3303 43.652 21.7258L43.6905 21.9393C43.6502 21.892 43.6012 21.8325 43.5802 21.8115C42.812 21.003 43.9337 21.6803 43.4332 21.0555C43.0097 20.59 42.8872 20.4448 42.5232 20.1648C42.3412 20.0475 42.231 19.8235 42.1715 20.205C42.1434 20.5397 42.1347 20.8756 42.1452 21.2113C42.1452 21.3723 42.308 21.6663 42.4497 21.8413ZM26.873 23.7295C27.314 23.9115 27.5957 23.0715 27.7777 22.151C27.9002 21.892 27.9947 21.864 28.0577 21.997C28.042 23.222 28.1452 23.4933 28.4602 23.866C29.162 24.4085 29.743 23.9343 29.7902 23.8888L30.3362 23.3428C30.457 23.215 30.6197 23.2063 30.7912 23.32C30.9592 23.4705 30.9365 23.733 31.2935 23.915C31.5945 24.0358 32.2385 23.943 32.3872 23.684C32.5885 23.341 32.6375 23.222 32.7285 23.0925C32.872 22.9018 33.117 22.9875 33.117 23.047C33.0942 23.1538 32.9507 23.2605 33.0487 23.4513C33.2202 23.579 33.2587 23.4968 33.3602 23.4688C33.7172 23.2973 33.9832 22.5238 33.9832 22.5238C33.999 22.235 33.838 22.2595 33.733 22.319C33.5965 22.4013 33.5877 22.4293 33.4512 22.5133C33.2762 22.5395 32.9385 22.655 32.7722 22.396C32.6007 22.0845 32.5972 21.6505 32.4677 21.3373C32.4677 21.3145 32.2402 20.842 32.452 20.8123C32.5587 20.8315 32.7845 20.891 32.8212 20.702C32.9315 20.5165 32.5815 19.988 32.3435 19.7203C32.1352 19.4928 31.8465 19.4648 31.5682 19.6975C31.3722 19.8778 31.4002 20.0773 31.3617 20.268C31.3288 20.4026 31.3283 20.543 31.3603 20.6778C31.3922 20.8125 31.4557 20.9378 31.5455 21.0433C31.7397 21.4265 32.095 21.9218 31.9777 22.6148C31.9777 22.6148 31.7712 22.9438 31.409 22.9018C31.2585 22.8685 31.0135 22.8038 30.884 21.8413C30.786 21.1115 30.9085 20.0913 30.5987 19.6135C30.4867 19.3248 30.4062 19.0465 30.1332 19.54C30.0597 19.7343 29.7447 20.0283 29.974 20.6355C30.1612 21.0188 30.2365 21.6435 30.1525 22.34C30.023 22.5378 29.995 22.6043 29.8252 22.802C29.5872 23.0575 29.33 22.9928 29.1322 22.8965C28.9467 22.7723 28.8032 22.7075 28.7192 22.312C28.735 21.682 28.77 20.6495 28.6545 20.4308C28.4847 20.0913 28.2047 20.2138 28.084 20.317C27.5082 20.8438 27.2247 21.731 27.0515 22.4363C26.8922 22.9508 26.7225 22.8038 26.6035 22.5955C26.313 22.3225 26.2937 20.1928 25.942 20.5445C25.3767 22.144 26.2605 23.901 26.873 23.7295Z" fill="white"/>
<path d="M35.2397 27.1666L35.0717 27.0704L31.78 27.0546C31.6102 26.9899 31.661 26.9339 31.78 26.8884C32.5657 26.7816 33.964 26.5541 34.0567 25.2119C34.041 24.5136 33.7557 24.0551 32.8982 23.9291C32.27 23.9781 31.8202 24.5889 31.892 25.2591C31.8622 25.4411 31.9515 25.7946 31.7677 25.8349C30.5585 25.9451 29.2407 26.7011 29.197 27.2436C29.1235 27.2944 28.959 27.1474 28.98 26.9164C28.9214 25.9283 28.637 24.9668 28.1487 24.1059C27.7672 23.7244 27.8862 23.8504 27.6307 24.0306C27.4662 24.2196 27.4365 24.3491 27.4452 24.7254C27.4452 24.7394 27.7532 25.5986 28.014 26.2006C28.1872 26.8184 28.35 27.5236 28.2327 28.1904C27.8267 29.0724 27.0095 29.8634 26.222 30.2921C25.816 30.4234 25.4677 30.3761 25.382 30.2851C25.1317 30.1171 25.144 29.8074 25.1632 29.8021C25.8265 29.3384 26.586 28.9656 27.181 27.7179C27.356 27.2419 27.4085 26.9531 27.2352 26.2164C27.1884 25.9563 27.0688 25.7148 26.8905 25.5199C26.9972 25.4499 27.3035 25.6826 27.3507 25.5444C27.2623 25.141 27.0615 24.7709 26.7715 24.4769C26.5352 24.2616 26.278 24.2371 26.061 24.4349C25.816 24.5714 25.7635 25.0579 25.8807 25.4849C26.0102 25.8069 26.362 25.8611 26.614 26.5069C26.614 26.5209 26.705 26.9899 26.5755 27.1736C26.4722 27.4956 25.1335 28.5474 25.06 28.5946C25.0232 28.6401 25.039 28.5719 25.0337 28.3969C25.025 28.1834 25.1195 27.6794 25.0932 27.6759C24.6575 27.9576 24.5122 28.8204 24.4335 29.0759C23.331 29.8371 22.0832 30.4041 21.3622 31.1776C20.986 31.7639 23.9487 30.5039 24.2935 30.3516C24.3705 30.4076 24.3617 30.6719 24.5682 30.9081C24.8762 31.3246 25.5272 31.5819 26.166 31.4226C27.2335 31.0359 27.8512 30.3079 28.4777 29.5011C28.567 29.3699 28.707 29.2701 28.8365 29.3699C29.267 30.3341 30.5112 31.0166 32.116 31.0884C32.4887 30.6351 32.3085 30.4164 32.158 30.3219C32.158 30.3079 31.3652 30.0069 31.2445 29.7059C31.171 29.4329 31.3495 29.1931 31.7065 29.0111C32.7372 28.8869 33.7505 28.7486 34.7322 28.4336C34.7427 28.1046 34.9335 27.6111 35.0647 27.3976C35.1907 27.1806 35.259 27.2454 35.2397 27.1666ZM32.5325 25.1156C32.5815 25.0334 32.7442 25.0369 32.8965 25.1261C33.0487 25.2154 33.1345 25.3536 33.0837 25.4359C33.0347 25.5199 32.8702 25.5146 32.718 25.4254C32.5657 25.3361 32.4835 25.1996 32.5325 25.1156ZM31.2077 28.4406C30.8542 28.5614 30.5147 28.6559 30.5147 29.1669C30.646 29.8774 30.3345 29.6341 30.1507 29.5361C29.9337 29.3804 29.323 29.0041 29.2355 28.1921C29.2215 27.9979 29.3737 27.8351 29.617 27.8351C29.9827 27.9349 30.5235 27.9419 30.9925 27.9909C31.3757 28.0154 31.5665 28.3164 31.2077 28.4406ZM19.0155 20.5569C19.3935 20.7389 20.1075 20.6619 20.076 20.0494C20.076 19.9951 20.062 19.8131 20.0567 19.7641C19.9797 19.5839 19.7697 19.6276 19.7207 19.8149C19.705 19.8761 19.747 19.9741 19.6927 20.0056C19.6612 20.0371 19.5405 20.0179 19.5457 19.8499C19.5457 19.7956 19.5055 19.7379 19.4827 19.7046C19.4582 19.6889 19.4442 19.6836 19.4005 19.6836C19.348 19.6854 19.348 19.6994 19.32 19.7449C19.3077 19.7886 19.2902 19.8341 19.2902 19.8849C19.2832 19.9444 19.2605 19.9654 19.2167 19.9759C19.1677 19.9759 19.1782 19.9811 19.1397 19.9549C19.1152 19.9286 19.0855 19.9181 19.0855 19.8744C19.0847 19.8233 19.0764 19.7726 19.061 19.7239C19.0388 19.6982 19.0079 19.6813 18.9682 19.6731C18.7617 19.6731 18.7477 19.9094 18.76 20.0004C18.7407 20.0161 18.7337 20.4396 19.0155 20.5569Z" fill="white"/>
<path d="M30.646 24.5469C30.646 24.4927 30.6057 24.4367 30.583 24.4017C30.5585 24.3859 30.5445 24.3807 30.5007 24.3807C30.4482 24.3824 30.45 24.3964 30.4202 24.4419C30.408 24.4874 30.3905 24.5312 30.3905 24.5819C30.3852 24.6432 30.3607 24.6642 30.317 24.6729C30.268 24.6729 30.2785 24.6782 30.2382 24.6537C30.2137 24.6274 30.184 24.6169 30.184 24.5732C30.1832 24.5221 30.1749 24.4714 30.1595 24.4227C30.1373 24.397 30.1064 24.3807 30.0667 24.3737C29.8602 24.3737 29.8462 24.6099 29.8567 24.6992C29.841 24.7167 29.8322 25.1384 30.114 25.2574C30.4937 25.4377 31.395 25.3327 31.1745 24.7499C31.1707 24.6541 31.1643 24.5584 31.1552 24.4629C31.0782 24.2827 30.8665 24.3282 30.8192 24.5137C30.8052 24.5749 30.8472 24.6729 30.7912 24.7044C30.7632 24.7359 30.6407 24.7167 30.646 24.5469ZM36.5907 23.3097C36.9687 23.4917 37.681 23.4147 37.6495 22.8039C37.6457 22.7081 37.6393 22.6124 37.6302 22.5169C37.5532 22.3367 37.3432 22.3822 37.296 22.5677C37.2802 22.6289 37.3222 22.7269 37.2662 22.7584C37.2347 22.7899 37.114 22.7724 37.1192 22.6027C37.1192 22.5484 37.079 22.4907 37.0562 22.4574C37.0317 22.4417 37.0177 22.4364 36.9722 22.4364C36.9197 22.4399 36.9215 22.4522 36.8917 22.4977C36.8795 22.5432 36.862 22.5869 36.862 22.6377C36.855 22.6989 36.8322 22.7199 36.7885 22.7287C36.7395 22.7287 36.75 22.7339 36.7097 22.7094C36.6852 22.6832 36.6572 22.6727 36.6572 22.6289C36.6566 22.5773 36.6483 22.526 36.6327 22.4767C36.6094 22.451 36.5779 22.4347 36.5382 22.4277C36.3317 22.4277 36.3177 22.6639 36.33 22.7532C36.3177 22.7707 36.309 23.1924 36.5907 23.3097ZM36.8462 20.9437C36.981 21.3217 36.743 21.6822 36.8847 21.7347C37.0125 21.7942 37.1945 21.3444 37.261 20.9297C37.3397 20.5937 37.1 19.9059 36.7605 19.7642C36.554 19.7152 36.26 19.8377 36.3545 20.1142C36.3072 20.2472 36.771 20.6987 36.8462 20.9437ZM40.3375 29.8057C40.6017 29.8074 40.9062 29.2019 41.0357 28.6017C41.1075 27.7757 40.9867 27.2734 40.9657 26.7869C40.9447 26.3004 40.418 22.6009 40.3095 22.2334C40.1817 21.5387 40.8222 22.1407 40.7522 21.7364C40.53 21.2272 39.9787 20.4869 39.8037 20.0442C39.6987 19.8552 39.7442 19.6872 39.5097 19.9952C39.2945 20.7039 39.2192 21.2814 39.3015 21.7224C39.858 24.6274 40.4285 27.0424 40.3375 29.8057ZM46.9105 22.2107C46.9717 22.3997 46.8177 23.0104 46.9455 23.0664C47.0627 23.1294 47.2272 22.6447 47.2885 22.1949C47.3217 21.9482 47.1415 21.0872 46.8317 20.9332C46.6427 20.8807 46.375 21.0119 46.4625 21.3129C46.4187 21.4582 46.8422 21.9447 46.9105 22.2107ZM23.9522 28.6087C24.066 28.6559 24.2217 28.2989 24.2812 27.9682C24.3145 27.7862 24.1395 27.1544 23.8437 27.0407C23.6617 27.0022 23.4132 27.0512 23.4902 27.3207C23.4815 27.4659 23.8927 27.6409 23.9172 27.9787C23.9767 28.1187 23.8297 28.5684 23.9522 28.6087ZM15.9792 20.5324C16.037 20.6777 15.9215 21.1414 16.0422 21.1852C16.1525 21.2342 16.3082 20.8632 16.366 20.5219C16.3992 20.3329 16.373 19.6924 15.9355 19.5612C15.7552 19.5209 15.505 19.6207 15.5872 19.8499C15.5452 19.9584 15.9145 20.3294 15.9792 20.5324ZM24.5577 22.5852C24.2235 22.7672 24.0922 23.3062 24.3022 23.6194C24.4965 23.8977 24.8045 23.7944 24.8465 23.7944C25.1755 23.8347 25.3697 23.1784 25.3697 23.1784C25.3697 23.1784 25.3802 22.9947 24.99 23.3429C24.8255 23.3744 24.8045 23.3132 24.7642 23.2187C24.7249 23.0474 24.7427 22.8679 24.815 22.7077C24.871 22.5449 24.745 22.4732 24.5577 22.5852ZM27.0812 20.5674C27.135 20.5339 27.1811 20.4894 27.2166 20.437C27.2522 20.3846 27.2764 20.3253 27.2877 20.2629C27.3385 20.0074 27.0165 20.3837 26.9762 20.0984C26.9045 19.8342 27.111 19.7257 27.307 19.4702C27.314 19.2934 27.3105 19.1692 27.0707 19.3127C26.9027 19.4264 26.5667 19.7729 26.5562 20.1719C26.5457 20.3977 26.5037 20.3959 26.6525 20.5394C26.7592 20.6952 26.866 20.6794 27.0812 20.5674ZM29.3545 20.7039C29.5715 20.1159 29.5715 19.8674 29.5872 19.6172C29.5207 19.2374 29.2635 19.2497 29.0937 19.6714C29.0202 19.8307 28.9345 20.6689 28.9485 20.6689C28.8907 20.9192 29.2092 21.0259 29.3545 20.7039ZM43.652 24.8742C43.652 24.8742 41.8967 26.1219 41.8547 26.1657C41.6797 26.3197 41.7672 26.8657 41.8547 26.8027C41.979 26.8517 43.7447 25.6529 43.7097 25.5129C43.792 25.5164 43.8322 24.8112 43.652 24.8742ZM43.4367 28.2587C43.554 28.3217 43.8637 27.9384 43.8515 27.4607C43.8865 27.2139 43.7622 26.3092 43.4542 26.1552C43.2652 26.1027 43.0132 26.2637 43.1007 26.5629C43.057 26.7064 43.3177 27.2087 43.386 27.4747C43.4472 27.6654 43.309 28.2027 43.4367 28.2587ZM33.4967 30.8767C33.4967 30.8924 33.6455 31.0202 33.8205 30.9187C34.188 30.7769 34.419 30.6404 34.9335 30.5267C35.0682 30.5249 35.0595 30.1627 34.846 30.1504C34.5677 30.1644 34.3087 30.1784 34.0305 30.3989C33.859 30.4374 33.831 30.3342 33.7925 30.2397C33.7505 30.0069 33.8887 29.8459 33.859 29.6727C33.8695 29.6832 33.6997 29.5274 33.5265 29.6149C33.5177 29.6149 33.1397 29.8704 33.019 30.0489C32.9437 30.1067 32.9525 30.1557 32.9752 30.2519C33.033 30.3849 33.1362 30.3447 33.2517 30.2817C33.4057 30.2607 33.4792 30.3622 33.467 30.5459C33.3935 30.7787 33.4967 30.8644 33.4967 30.8767ZM44.961 31.1672C44.9032 31.2669 44.8647 31.4174 45.0432 31.4647C45.3722 31.5574 46.13 31.0639 46.13 31.0552C46.2525 30.9624 46.2122 30.7892 46.2017 30.7892C46.13 30.7069 45.969 30.7542 45.8605 30.7419C45.8097 30.7419 45.6382 30.7157 45.7205 30.5652C45.7783 30.484 45.8242 30.3951 45.857 30.3009C45.9077 30.1872 45.864 30.1119 45.6785 30.0507C45.4912 30.0157 45.416 30.0332 45.2077 30.0507C45.0957 30.0752 45.0572 30.1242 45.0362 30.2607C45.045 30.4672 45.1692 30.4567 45.2987 30.5389C45.374 30.6352 45.423 30.7227 45.2935 30.8784C45.171 30.9922 45.0852 31.0552 44.961 31.1672ZM44.625 40.2497H42V39.3747C42 39.1426 41.9078 38.9201 41.7437 38.756C41.5796 38.5919 41.357 38.4997 41.125 38.4997C40.8929 38.4997 40.6704 38.5919 40.5063 38.756C40.3422 38.9201 40.25 39.1426 40.25 39.3747V40.2497H19.25C19.25 40.2497 19.25 41.9997 24.5 41.9997H40.25V42.8747C40.25 43.1068 40.3422 43.3293 40.5063 43.4934C40.6704 43.6575 40.8929 43.7497 41.125 43.7497C41.357 43.7497 41.5796 43.6575 41.7437 43.4934C41.9078 43.3293 42 43.1068 42 42.8747V41.9997H43.75V42.8747C43.75 43.1068 43.8422 43.3293 44.0063 43.4934C44.1704 43.6575 44.3929 43.7497 44.625 43.7497C44.857 43.7497 45.0796 43.6575 45.2437 43.4934C45.4078 43.3293 45.5 43.1068 45.5 42.8747V41.1247C45.5 40.8926 45.4078 40.6701 45.2437 40.506C45.0796 40.3419 44.857 40.2497 44.625 40.2497Z" fill="white"/>
</svg>
