<svg width="68" height="68" viewBox="0 0 68 68" fill="none" xmlns="http://www.w3.org/2000/svg">
<circle cx="34" cy="34" r="33.5" fill="white" stroke="#D1D1D1"/>
<path d="M32.625 41.75H35.375V33.05H32.625V41.75ZM34 30.15C34.3896 30.15 34.7164 30.0108 34.9804 29.7324C35.2444 29.454 35.3759 29.1099 35.375 28.7C35.3741 28.2901 35.2421 27.946 34.979 27.6676C34.7159 27.3892 34.3896 27.25 34 27.25C33.6104 27.25 33.2841 27.3892 33.021 27.6676C32.7579 27.946 32.6259 28.2901 32.625 28.7C32.6241 29.1099 32.7561 29.4545 33.021 29.7339C33.2859 30.0132 33.6123 30.1519 34 30.15ZM34 49C30.8146 48.1542 28.1847 46.2266 26.1103 43.2174C24.0358 40.2082 22.9991 36.8674 23 33.195V24.35L34 20L45 24.35V33.195C45 36.8683 43.9633 40.2096 41.8898 43.2189C39.8163 46.2281 37.1863 48.1551 34 49Z" fill="#8B8B8B"/>
</svg>
